SplineFontDB: 3.0
FontName: NimboFourteen
FullName: Nimbo Fourteen
FamilyName: NimboFourteen
Weight: Regular
Copyright: Created by trashman with FontForge 2.0 (http://fontforge.sf.net)
Version: 0.1
ItalicAngle: 0
UnderlinePosition: -100
UnderlineWidth: 50
Ascent: 670
Descent: 330
LayerCount: 3
Layer: 0 0 "Back"  1
Layer: 1 0 "Fore"  0
Layer: 2 0 "backup"  0
NeedsXUIDChange: 1
XUID: [1021 658 797806517 11461781]
OS2Version: 0
OS2_WeightWidthSlopeOnly: 0
OS2_UseTypoMetrics: 1
CreationTime: 1288472788
ModificationTime: 1288957322
OS2TypoAscent: 0
OS2TypoAOffset: 1
OS2TypoDescent: 0
OS2TypoDOffset: 1
OS2TypoLinegap: 0
OS2WinAscent: 0
OS2WinAOffset: 1
OS2WinDescent: 0
OS2WinDOffset: 1
HheadAscent: 0
HheadAOffset: 1
HheadDescent: 0
HheadDOffset: 1
OS2Vendor: 'PfEd'
MarkAttachClasses: 1
DEI: 91125
Encoding: UnicodeBmp
UnicodeInterp: none
NameList: Adobe Glyph List
DisplaySize: -48
AntiAlias: 1
FitToEm: 1
WinInfo: 24 12 4
BeginPrivate: 9
BlueValues 7 [-12 0]
OtherBlues 2 []
BlueScale 8 0.039625
BlueShift 1 7
BlueFuzz 1 0
StdHW 4 [36]
StemSnapH 28 [20 25 30 36 44 48 63 79 86]
StdVW 4 [66]
StemSnapV 28 [65 66 68 71 72 75 78 80 84]
EndPrivate
BeginChars: 65537 84

StartChar: a
Encoding: 97 97 0
Width: 364
VWidth: 0
Flags: HW
HStem: -10 47<88.5 194.686 270 337.28> 329 40<130.874 215.384>
VStem: 28 78<44.3047 113.218> 39 88<262.215 307.223> 230 62<45.8875 160.999 181.616 317.1>
LayerCount: 3
Fore
SplineSet
229 244 m 0xe8
 229 288 224 329 170 329 c 0
 148 329 129 318 127 304 c 0
 124 283 104 245 66 245 c 0
 50 245 39 256 39 269 c 0xd8
 39 286 58 308 78 322 c 0
 109 344 178 369 200 369 c 0
 256 369 295 347 295 262 c 0
 295 205 292 119 292 92 c 0
 292 69 292 37 312 37 c 0
 326 37 337 55 341 55 c 0
 347 54 348 47 348 40 c 0
 348 7 312 -10 287 -10 c 0
 253 -10 238 10 231 33 c 0
 228 43 227 40 222 34 c 0
 200 12 168 -12 111 -12 c 0
 66 -12 28 24 28 65 c 0
 28 121 95 147 151 164 c 0
 174 171 195 178 210 182 c 0
 221 185 228 193 228 204 c 0
 228 217 229 230 229 244 c 0xe8
166 33 m 0
 232 33 228 85 230 149 c 0
 230 159 222 161 219 161 c 0
 216 161 198 156 183 152 c 0
 149 142 106 127 106 89 c 0xe8
 106 53 133 33 166 33 c 0
EndSplineSet
EndChar

StartChar: b
Encoding: 98 98 1
Width: 445
VWidth: 0
Flags: W
HStem: -13 29<166.027 272.68> -5 21G<62 70.5> 330 34<172.336 272.927>
VStem: 63 58<50.9202 308.859 332.355 554.411> 350 66<87.6526 253.286>
LayerCount: 3
Fore
SplineSet
416 182 m 0x78
 416 98 367 -13 221 -13 c 0xb8
 145 -13 120 12 101 12 c 0
 88 12 76 -5 65 -5 c 0
 59 -5 58 0 58 8 c 0
 63 186 63 234 63 542 c 0
 63 574 63 592 49 601 c 2
 29 614 l 2
 23 617 20 621 20 625 c 0
 20 630 25 635 33 638 c 2
 104 663 l 2
 109 665 115 667 120 667 c 0
 126 667 131 664 131 653 c 0
 130 516 121 352 121 331 c 0
 121 319 128 323 136 328 c 0
 157 343 205 364 245 364 c 0
 342 364 416 282 416 182 c 0x78
224 16 m 0
 296 16 350 93 350 172 c 0
 350 252 292 330 214 330 c 0
 189 330 168 322 152 314 c 0
 132 304 121 294 121 287 c 2
 121 127 l 2
 121 67 148 16 224 16 c 0
EndSplineSet
EndChar

StartChar: c
Encoding: 99 99 2
Width: 362
VWidth: 0
Flags: W
HStem: -15 45<153.158 287.664> 330 35<146.834 262.709>
VStem: 21 61<103.775 257.837>
LayerCount: 3
Fore
SplineSet
334 321 m 0
 334 303 321 291 302 291 c 0
 276 291 268 312 253 320 c 0
 241 326 229 330 210 330 c 0
 127 330 82 263 82 186 c 0
 82 97 147 30 226 30 c 0
 282 30 308 68 320 68 c 0
 326 68 329 61 329 57 c 0
 329 20 266 -15 202 -15 c 0
 96 -15 21 49 21 162 c 0
 21 278 100 365 230 365 c 0
 269 365 334 358 334 321 c 0
EndSplineSet
EndChar

StartChar: d
Encoding: 100 100 3
Width: 445
VWidth: 0
Flags: W
HStem: -9 39<143.498 257.321> 327 27<172.144 271.609>
VStem: 28 68<80.8731 242.919> 313 62<39.0037 42 55.309 296.836 346.554 598.25>
LayerCount: 3
Fore
SplineSet
183 -9 m 0
 81 -9 28 53 28 152 c 0
 28 270 120 354 228 354 c 0
 260 354 286 349 308 342 c 0
 316 339 319 336 319 350 c 0
 319 366 318 488 316 564 c 0
 316 582 314 588 303 593 c 2
 285 601 l 2
 276 605 273 608 273 612 c 0
 273 616 278 621 283 624 c 2
 366 668 l 2
 368 669 370 669 371 669 c 0
 376 669 379 665 379 657 c 0
 379 450 375 253 375 62 c 0
 375 44 376 39 381 39 c 0
 383 39 385 40 388 41 c 2
 411 50 l 2
 423 55 425 51 425 36 c 0
 425 31 425 25 421 23 c 2
 334 -14 l 2
 329 -16 324 -18 321 -18 c 0
 313 -18 313 -12 313 4 c 2
 313 42 l 2
 313 54 311 50 306 45 c 0
 281 23 241 -9 183 -9 c 0
216 327 m 0
 158 327 96 258 96 183 c 0
 96 106 120 30 204 30 c 0
 258 30 313 58 313 88 c 2
 313 230 l 2
 313 300 268 327 216 327 c 0
EndSplineSet
EndChar

StartChar: e
Encoding: 101 101 4
Width: 376
VWidth: 0
Flags: W
HStem: -12 45<150.376 289.778> 236 22<109.001 258.271> 338 27<156.318 252.777>
VStem: 26 62<101.067 234.433> 270 66<243.5 320.151>
LayerCount: 3
Fore
SplineSet
199 -12 m 0
 87 -12 26 63 26 172 c 0
 26 276 95 365 205 365 c 0
 309 365 336 301 336 248 c 0
 336 239 335 234 327 234 c 2
 103 236 l 2
 91 236 88 217 88 194 c 0
 88 112 130 33 223 33 c 0
 298 33 330 77 337 77 c 0
 340 77 343 74 343 69 c 0
 343 37 282 -12 199 -12 c 0
123 258 m 2
 196 258 l 2
 228 258 270 260 270 291 c 0
 270 318 245 338 213 338 c 0
 139 338 109 283 109 266 c 0
 109 259 110 258 123 258 c 2
EndSplineSet
EndChar

StartChar: f
Encoding: 102 102 5
Width: 285
VWidth: 0
Flags: HW
HStem: -2 30<21.2382 54 143.875 245.953> 312 29<26.8413 44> 321 33<136.099 258.999> 620 50<156.052 257.321>
VStem: 74 62<32.4866 311.837 354.16 568.619>
LayerCount: 3
Fore
SplineSet
280 633 m 0xd8
 280 613 260 602 239 602 c 0
 216 602 205 620 185 620 c 0
 149 620 134 552 134 509 c 2
 134 369 l 2
 134 354 134 354 148 354 c 2
 250 354 l 2
 258 354 259 350 259 338 c 0
 259 327 258 321 250 321 c 2
 148 321 l 2xb8
 138 321 136 320 136 309 c 2
 136 100 l 2
 136 42 137 28 196 28 c 2
 219 28 l 2
 235 28 246 25 246 12 c 0
 246 3 239 -2 213 -2 c 0
 182 -2 137 0 109 0 c 0
 85 0 58 -2 39 -2 c 0
 23 -2 21 0 21 10 c 0
 21 22 30 24 41 26 c 2
 54 28 l 2
 71 31 74 40 74 50 c 2
 74 295 l 2
 74 311 70 312 56 312 c 2
 45 312 l 2
 34 312 26 315 26 322 c 0
 26 330 33 336 44 341 c 2
 64 350 l 2
 75 355 75 356 75 368 c 0
 75 385 73 424 73 437 c 0
 73 590 138 670 223 670 c 0
 246 670 280 665 280 633 c 0xd8
EndSplineSet
EndChar

StartChar: g
Encoding: 103 103 6
Width: 472
VWidth: 0
Flags: HW
HStem: -304 37<156.479 289.455> -71 64<130.825 359.46> 87 22<169.781 256.191> 288 54<353.243 459> 302 37<352 440.703> 336 31<167.207 265.844>
VStem: 39 59<-220.137 -142.455> 50 64<-0.105221 36.955> 58 62<153.264 294.681> 304 62<157.178 300.724> 370 62<-184.447 -84.6036>
LayerCount: 3
Fore
SplineSet
212 87 m 0xe8e0
 203 87 190 88 183 88 c 0
 175 88 169 87 162 81 c 0
 134 55 114 41 114 28 c 0xe960
 114 0 138 -7 206 -7 c 2
 320 -7 l 2
 391 -7 432 -39 432 -99 c 0
 432 -227 309 -304 191 -304 c 0
 119 -304 39 -279 39 -206 c 0xea60
 39 -158 71 -124 112 -90 c 0
 122 -82 126 -73 110 -69 c 0
 90 -64 50 -35 50 2 c 0xe960
 50 29 82 44 110 62 c 0
 141 82 150 87 150 93 c 0
 150 96 146 98 136 103 c 0
 100 122 58 160 58 227 c 0
 58 293 122 367 216 367 c 0xe4e0
 296 367 321 339 335 339 c 0xe8e0
 344 339 436 342 441 342 c 0
 458 342 459 340 459 324 c 2
 459 304 l 2
 459 291 451 288 444 288 c 0xf0e0
 437 288 357 302 353 302 c 0
 352 302 352 301 352 300 c 0
 352 294 366 272 366 236 c 0
 366 144 296 87 212 87 c 0xe8e0
370 -124 m 0
 370 -79 329 -71 278 -71 c 2
 161 -71 l 2
 156 -71 151 -73 145 -78 c 0
 124 -96 98 -136 98 -170 c 0xe260
 98 -221 161 -267 222 -267 c 0
 291 -267 370 -221 370 -124 c 0
304 227 m 0
 304 286 277 336 216 336 c 0
 153 336 120 276 120 220 c 0xe4e0
 120 169 151 109 207 109 c 0
 272 109 304 147 304 227 c 0
EndSplineSet
EndChar

StartChar: h
Encoding: 104 104 7
Width: 471
VWidth: 0
Flags: W
HStem: -2 29<29.1379 69.0793 142.875 212.918 288.07 333.691 409.479 457.931> 324 39<210.011 308.65>
VStem: 76 59<28.7466 286.637 302.728 598.781> 339 65<28.5945 295.992>
LayerCount: 3
Fore
SplineSet
404 78 m 2
 404 42 412 29 430 28 c 2
 444 27 l 2
 452 26 458 21 458 14 c 0
 458 2 449 -2 435 -2 c 0
 421 -2 394 0 375 0 c 0
 356 0 324 -2 309 -2 c 0
 298 -2 288 0 288 11 c 0
 288 21 294 26 304 27 c 2
 314 28 l 2
 336 30 339 51 339 78 c 2
 339 160 l 2
 339 184 339 206 338 237 c 0
 336 300 297 324 252 324 c 0
 224 324 195 315 172 298 c 0
 152 283 135 273 135 243 c 2
 135 183 l 2
 135 149 135 118 136 83 c 0
 137 45 142 28 170 26 c 2
 201 24 l 2
 210 23 213 18 213 11 c 0
 213 0 206 -2 192 -2 c 0
 178 -2 127 0 108 0 c 0
 89 0 64 -2 49 -2 c 0
 38 -2 29 0 29 11 c 0
 29 22 41 22 54 27 c 0
 71 33 73 49 73 71 c 0
 73 208 76 267 76 380 c 2
 76 451 l 2
 76 476 76 502 75 528 c 8
 74 556 74 590 56 598 c 2
 34 608 l 2
 29 610 26 614 26 617 c 0
 26 620 28 623 32 625 c 2
 124 661 l 2
 126 662 127 662 129 662 c 0
 134 662 138 659 138 654 c 0
 138 555 136 406 135 316 c 0
 135 303 137 297 146 303 c 0
 177 326 226 363 288 363 c 0
 361 363 401 330 402 244 c 2
 404 78 l 2
EndSplineSet
EndChar

StartChar: i
Encoding: 105 105 8
Width: 225
VWidth: 0
Flags: W
HStem: -2 29<31.6785 71.8066 141.475 186.394> 580 73<74.336 141.664>
VStem: 71 74<583.162 649.664> 74 59<29.0413 298.85>
LayerCount: 3
Fore
SplineSet
43 326 m 2xd0
 113 371 l 2
 119 375 125 379 129 379 c 0
 133 379 136 375 136 363 c 2
 133 74 l 2
 133 46 145 32 161 26 c 0
 182 18 187 18 187 8 c 0
 187 2 181 -2 173 -2 c 0
 151 -2 133 0 107 0 c 0
 90 0 60 -2 55 -2 c 0
 43 -2 31 -2 31 9 c 0
 31 20 45 21 58 27 c 0
 74 34 74 43 74 78 c 0
 74 141 75 204 75 265 c 0
 75 280 72 296 64 299 c 2
 42 308 l 2
 28 314 32 319 43 326 c 2xd0
71 616 m 0xe0
 71 636 88 653 108 653 c 0
 128 653 145 636 145 616 c 0
 145 596 128 580 108 580 c 0
 88 580 71 596 71 616 c 0xe0
EndSplineSet
EndChar

StartChar: j
Encoding: 106 106 9
Width: 207
VWidth: 0
Flags: HW
HStem: -229 52<-0.650085 46.2304> 580 73<74.336 141.664>
VStem: 71 74<583.162 649.664> 71 64<-120.777 313.938>
LayerCount: 3
Fore
SplineSet
71 616 m 0xe0
 71 636 88 653 108 653 c 0
 128 653 145 636 145 616 c 0
 145 596 128 580 108 580 c 0
 88 580 71 596 71 616 c 0xe0
69 274 m 0
 68 300 59 309 51 313 c 2
 41 318 l 2
 34 321 32 324 32 326 c 0
 32 330 38 333 46 337 c 2
 120 373 l 2
 122 374 127 377 131 377 c 0
 134 377 137 375 137 371 c 0
 137 341 134 230 134 188 c 0
 134 171 135 63 135 2 c 0
 135 -94 118 -118 84 -165 c 0
 55 -205 42 -229 11 -229 c 0
 1 -229 -1 -212 -1 -198 c 0
 -1 -186 1 -177 10 -177 c 2
 28 -177 l 2
 35 -177 37 -176 42 -166 c 0
 52 -146 68 -95 70 1 c 0
 71 36 71 70 71 105 c 0xd0
 71 161 70 218 69 274 c 0
EndSplineSet
EndChar

StartChar: k
Encoding: 107 107 10
Width: 471
VWidth: 0
Flags: HW
HStem: -2 26<37.0066 59 171 195.995 274.007 306.684 426 451.995> 324 28<358.63 406.974>
VStem: 84 63<187.369 605.938> 86 58<28.9726 155.031 168.002 400.466>
DStem2: 166 181 178 165 0.779411 0.626512<-21.2432 15.141 79.0827 159.009> 255 194 207 160 0.667658 -0.744468<-19.1142 149.083>
LayerCount: 3
Fore
SplineSet
255 194 m 2xd0
 368 68 l 2
 387 47 406 30 426 26 c 2
 440 23 l 2
 448 21 452 18 452 11 c 0
 452 -1 445 -2 431 -2 c 0
 417 -2 387 0 368 0 c 0
 349 0 309 -2 294 -2 c 0
 283 -2 274 0 274 11 c 0
 274 17 279 22 289 24 c 0
 303 27 307 33 307 40 c 0
 307 48 301 58 294 65 c 2
 207 160 l 2
 200 168 196 173 192 173 c 0
 189 173 185 170 178 165 c 2
 151 143 l 2
 141 135 138 133 138 114 c 2
 138 69 l 2
 138 44 151 29 171 26 c 2
 184 24 l 2
 191 23 196 18 196 11 c 0
 196 -1 189 -2 175 -2 c 0
 161 -2 128 0 115 0 c 0
 96 0 72 -2 57 -2 c 0
 46 -2 37 0 37 11 c 0
 37 21 42 22 52 25 c 2
 59 27 l 2
 81 33 81 50 82 72 c 0
 85 161 86 273 86 358 c 0xd0
 86 417 85 479 84 552 c 0
 84 573 78 593 67 602 c 2
 50 616 l 2
 41 623 46 630 58 635 c 2
 130 666 l 2
 134 668 138 669 141 669 c 0
 148 669 152 664 152 654 c 0
 152 639 147 629 147 589 c 0xe0
 147 444 144 317 144 181 c 0
 144 171 146 168 149 168 c 0
 153 168 160 176 166 181 c 2
 253 257 l 2
 263 266 293 289 293 314 c 0
 293 320 290 324 283 326 c 0
 271 329 263 329 263 339 c 0
 263 350 274 352 285 352 c 0
 294 352 317 350 331 350 c 0
 347 350 379 352 387 352 c 0
 398 352 407 351 407 339 c 0
 407 328 400 326 391 324 c 0
 382 322 373 321 360 311 c 0
 331 291 287 254 256 225 c 0
 248 218 244 214 244 210 c 0
 244 206 248 202 255 194 c 2xd0
EndSplineSet
EndChar

StartChar: l
Encoding: 108 108 11
Width: 234
VWidth: 0
Flags: HW
HStem: -2 26<27.0066 76.3263 175 207.995>
VStem: 84 65<27.8877 601.57>
LayerCount: 3
Fore
SplineSet
147 69 m 4
 147 43 154 30 175 27 c 6
 196 24 l 6
 202 23 208 18 208 11 c 4
 208 -1 201 -2 187 -2 c 4
 173 -2 137 0 118 0 c 4
 99 0 62 -2 47 -2 c 4
 36 -2 27 0 27 11 c 4
 27 21 32 25 42 26 c 6
 59 27 l 6
 80 28 82 48 82 72 c 4
 84 179 84 273 84 358 c 0
 84 417 83 479 82 552 c 0
 82 573 78 593 67 602 c 2
 50 616 l 2
 41 623 46 630 58 635 c 2
 130 666 l 2
 134 668 138 669 141 669 c 0
 148 669 152 664 152 654 c 0
 152 639 149 629 149 589 c 2
 149 306 l 2
 149 235 147 157 147 69 c 4
EndSplineSet
EndChar

StartChar: m
Encoding: 109 109 12
Width: 715
VWidth: 0
Flags: HW
HStem: -2 30<15.1084 46 141.111 192.85 261.108 314.799 407 436.85 512.115 564.268 660 686.759> 320 43<184.668 296.812 446.914 550.498>
VStem: 69 63<32.5391 298.527> 320 63<30.3679 291.75> 571 62<29.4217 300.814>
LayerCount: 3
Fore
SplineSet
398 312 m 0
 446 343 477 363 530 363 c 0
 621 363 633 299 633 272 c 2
 634 83 l 2
 634 47 635 31 660 27 c 2
 674 25 l 2
 680 24 687 18 687 11 c 0
 687 -1 678 -2 665 -2 c 0
 651 -2 627 0 608 0 c 0
 589 0 548 -2 533 -2 c 0
 522 -2 512 0 512 11 c 0
 512 21 518 25 528 26 c 2
 544 28 l 2
 572 32 569 63 570 99 c 0
 571 133 571 185 571 218 c 0
 571 278 560 320 492 320 c 0
 449 320 417 304 401 290 c 0
 384 276 383 279 383 255 c 0
 383 244 384 232 384 216 c 0
 384 172 383 127 383 83 c 0
 383 47 384 32 407 28 c 2
 420 26 l 2
 433 24 437 18 437 11 c 0
 437 -1 429 -2 415 -2 c 0
 401 -2 374 0 355 0 c 0
 336 0 296 -2 281 -2 c 0
 270 -2 261 0 261 11 c 0
 261 21 267 26 276 27 c 2
 291 29 l 2
 319 33 318 40 319 99 c 0
 320 136 320 169 320 205 c 0
 320 275 302 326 234 326 c 0
 212 326 190 324 168 309 c 0
 136 288 132 279 132 185 c 2
 132 87 l 2
 132 48 144 31 161 29 c 2
 178 27 l 2
 190 26 193 18 193 11 c 0
 193 -2 180 -2 163 -2 c 0
 149 -2 122 0 103 0 c 0
 84 0 57 -2 42 -2 c 0
 31 -2 15 0 15 11 c 0
 15 22 21 26 30 28 c 2
 46 32 l 2
 62 36 63 55 64 81 c 0
 66 134 69 229 69 251 c 0
 69 273 69 289 60 299 c 2
 48 312 l 2
 40 320 39 324 51 332 c 2
 123 380 l 2
 126 382 131 384 134 384 c 0
 137 384 140 382 140 374 c 0
 140 367 136 328 136 318 c 0
 136 306 143 314 148 318 c 0
 185 348 231 365 270 365 c 0
 316 365 349 342 367 313 c 0
 373 304 376 300 379 300 c 0
 383 300 388 305 398 312 c 0
EndSplineSet
EndChar

StartChar: n
Encoding: 110 110 13
Width: 471
VWidth: 0
Flags: W
HStem: -2 29<25.0715 63.0364 138.826 192.91 279.059 324.685 420 445.91> 324 42<197.725 300.347>
VStem: 71 61<28.2386 290.98> 334 62<29.2893 292.067>
LayerCount: 3
Fore
SplineSet
395 83 m 0
 395 47 401 29 420 26 c 2
 434 24 l 2
 441 23 446 18 446 11 c 0
 446 -1 439 -2 425 -2 c 0
 411 -2 387 0 368 0 c 0
 349 0 314 -2 299 -2 c 0
 288 -2 279 0 279 11 c 0
 279 21 284 25 294 26 c 2
 304 27 l 2
 332 30 332 63 333 99 c 0
 334 135 334 169 334 205 c 0
 334 242 332 270 313 292 c 0
 294 314 266 324 239 324 c 0
 215 324 189 315 168 301 c 0
 136 280 132 279 132 185 c 2
 132 87 l 2
 132 48 139 29 159 27 c 2
 181 25 l 2
 188 24 193 18 193 11 c 0
 193 -1 180 -2 163 -2 c 0
 149 -2 122 0 103 0 c 0
 84 0 62 -2 47 -2 c 0
 36 -2 25 0 25 11 c 0
 25 23 36 25 48 27 c 0
 68 30 69 63 69 97 c 0
 69.6938729945 148.346601596 71 232 71 251 c 0
 71 273 69 289 60 299 c 2
 48 312 l 2
 40 320 39 325 51 332 c 2
 121 375 l 2
 125 377 129 380 133 380 c 0
 136 380 139 378 139 371 c 0
 139 364 132 318 132 308 c 0
 132 296 143 306 148 310 c 0
 185 340 219 366 283 366 c 4
 374 366 396 302 396 216 c 0
 396 172 395 127 395 83 c 0
EndSplineSet
EndChar

StartChar: o
Encoding: 111 111 14
Width: 410
VWidth: 0
Flags: W
HStem: -10 29.9255<152.223 248.433> 331.049 32.9509<154.761 256.629>
VStem: 26 66<79.2396 266.491> 310.165 66.835<84.2443 277.86>
LayerCount: 3
Fore
SplineSet
203.728156663 331.049125602 m 0
 166.857527849 331.049125602 92 293.675504976 92 183 c 0
 92 106.781549418 121.417281813 19.9255488239 202.992503407 19.9255488239 c 0
 241.846020932 19.9255488239 310.165014558 51 310.165014558 186.881796732 c 0
 310.165014558 264.19308346 272.383440268 331.049125602 203.728156663 331.049125602 c 0
204 364 m 0
 303 364 377 308 377 176 c 0
 377 66 301 -10 196 -10 c 0
 88 -10 26 76 26 172 c 0
 26 285 105 364 204 364 c 0
EndSplineSet
EndChar

StartChar: p
Encoding: 112 112 15
Width: 455
VWidth: 0
Flags: HW
HStem: -299 31<15.0147 69.1838 147.791 214.815> -11 29<182.301 294.617> 328 36<193.236 297.313>
VStem: 77 63<-264.482 1.44141 50.5681 297.447> 361 66<94.2447 257.042>
LayerCount: 3
Fore
SplineSet
73 -225 m 0
 76 -145 76 152 76 224 c 0
 76 252 73 281 59 294 c 2
 50 302 l 2
 41 310 42 312 50 318 c 2
 123 371 l 2
 126 373 132 377 136 377 c 0
 139 377 142 374 141 367 c 2
 137 328 l 2
 135 310 141 318 150 323 c 0
 174 337 220 364 258 364 c 0
 342 364 427 323 427 190 c 0
 427 81 354 -11 231 -11 c 0
 206 -11 173 -5 154 5 c 0
 145 10 140 12 140 0 c 0
 140 -92 143 -135 143 -228 c 0
 143 -254 152 -265 175 -268 c 2
 197 -271 l 2
 212 -273 215 -279 215 -286 c 0
 215 -298 208 -299 194 -299 c 0
 180 -299 127 -297 108 -297 c 0
 89 -297 52 -299 37 -299 c 0
 23 -299 15 -295 15 -284 c 0
 15 -274 20 -269 32 -268 c 2
 49 -266 l 2
 70 -263 72 -249 73 -225 c 0
361 167 m 0
 361 245 315 328 244 328 c 0
 222 328 198 326 174 315 c 0
 147 302 139 293 139 275 c 2
 139 97 l 2
 139 83 164 18 231 18 c 0
 326 18 361 86 361 167 c 0
EndSplineSet
EndChar

StartChar: q
Encoding: 113 113 16
Width: 455
VWidth: 0
Flags: HW
HStem: -308 32<245.254 305.25 385.987 439.967> -13 39<158.081 275.236> 334 30<162.447 275.866>
VStem: 24 65<94.2897 261.267> 314 69<-272.25 19.79> 321 61<-222.129 18.6453 40.5807 300.797>
LayerCount: 3
Fore
SplineSet
234 26 m 0xf4
 275 26 321 39 321 73 c 2
 321 243 l 2
 321 309 263 334 218 334 c 0
 137 334 89 256 89 178 c 0
 89 95 139 26 234 26 c 0xf4
383 -234 m 0xf8
 384 -258 385 -273 406 -276 c 2
 423 -278 l 2
 435 -279 440 -283 440 -293 c 0
 440 -304 432 -308 418 -308 c 0
 403 -308 366 -306 347 -306 c 0
 328 -306 280 -308 266 -308 c 0
 252 -308 245 -307 245 -295 c 0
 245 -288 248 -280 263 -278 c 2
 280 -276 l 2
 303 -273 313 -254 314 -226 c 0xf8
 318 -144 319 -24 319 22 c 0
 319 33 314 28 307 23 c 0
 283 8 239 -13 199 -13 c 0
 82 -13 24 70 24 170 c 0
 24 283 104 364 234 364 c 0
 289 364 334 335 340 335 c 0
 349 335 351 337 358 348 c 2
 367 362 l 2
 371 368 376 372 380 372 c 0
 384 372 387 368 387 358 c 0
 387 350 386 334 386 322 c 0
 383 177 382 14 382 -103 c 0xf4
 382 -161 382 -207 383 -234 c 0xf8
EndSplineSet
EndChar

StartChar: r
Encoding: 114 114 17
Width: 310
VWidth: 0
Flags: HW
HStem: -2 30<32.1152 62.7021 141.747 212.952> 299 60<186.849 280.67>
VStem: 71 62<33.8647 278.341 287.001 304.312>
LayerCount: 3
Fore
SplineSet
261 359 m 0
 276 359 301 350 301 325 c 0
 301 301 284 285 264 285 c 0
 237 285 227 299 196 299 c 0
 178 299 168 293 153 279 c 0
 138 265 135 247 135 222 c 2
 134 74 l 2
 134 30 157 31 193 28 c 0
 207 27 213 20 213 12 c 0
 213 6 209 -2 195 -2 c 0
 173 -2 138 0 112 0 c 0
 94 0 66 -2 54 -2 c 0
 42 -2 32 0 32 11 c 0
 32 20 38 25 51 31 c 0
 69 39 71 71 71 105 c 2
 71 251 l 2
 71 273 70 293 57 300 c 2
 46 306 l 2
 32 313 38 316 50 325 c 2
 122 376 l 2
 125 378 134 385 140 385 c 0
 144 385 146 382 146 376 c 0
 146 365 133 323 133 291 c 0
 133 288 134 287 136 287 c 0
 139 287 170 317 173 320 c 0
 201 344 231 359 261 359 c 0
EndSplineSet
EndChar

StartChar: s
Encoding: 115 115 18
Width: 295
VWidth: 0
Flags: HW
HStem: -6 29<76.2743 176.806> 4 83<22.4426 55.8079> 289 74<221.25 251.798> 340 29<124.224 210.255>
VStem: 45 63<246.455 327.377> 199 59<39.7339 132.201>
LayerCount: 3
Fore
SplineSet
20 59 m 0x4c
 20 71 24 87 35 87 c 0x4c
 46 87 53 71 59 60 c 0
 75 32 90 24 132 24 c 0x8c
 182 24 199 57 199 87 c 0
 199 167 45 168 45 274 c 0
 45 339 120 369 178 369 c 0x5c
 195 369 207 368 227 363 c 0
 244 359 251 354 252 339 c 2
 254 312 l 2
 255 296 250 289 244 289 c 0x2c
 239 289 235 293 230 299 c 2
 210 326 l 2
 201 338 186 340 170 340 c 0
 136 340 108 322 108 291 c 0
 108 217 258 196 258 104 c 0
 258 32 197 -6 117 -6 c 0x9c
 88 -6 64 -2 46 4 c 0
 32 9 23 9 21 36 c 0
 20 44 20 51 20 59 c 0x4c
EndSplineSet
EndChar

StartChar: t
Encoding: 116 116 19
Width: 308
VWidth: 0
Flags: HW
HStem: -8 49<145.552 249.241> 316 39<134.225 278.998>
VStem: 64 65<55.8892 309.877>
LayerCount: 3
Fore
SplineSet
163 -8 m 0
 110 -8 64 30 64 89 c 0
 64 198 67 250 67 260 c 0
 67 300 67 310 51 310 c 2
 45 310 l 2
 39 310 33 311 33 326 c 0
 33 337 39 341 51 351 c 0
 73 369 101 407 109 422 c 0
 111 426 116 428 123 428 c 0
 127 428 134 428 134 418 c 2
 134 367 l 2
 134 355 134 355 147 355 c 2
 270 355 l 2
 279 355 279 345 279 337 c 0
 279 329 279 316 270 316 c 2
 145 316 l 2
 132 316 129 315 129 304 c 2
 129 127 l 2
 129 76 146 41 192 41 c 0
 242 41 260 64 271 64 c 0
 278 64 282 59 282 52 c 0
 282 32 239 -8 163 -8 c 0
EndSplineSet
EndChar

StartChar: u
Encoding: 117 117 20
Width: 438
VWidth: 0
Flags: HW
HStem: -13 39<147.24 243.744> 319 28<19.0843 63.9096 258.007 306.109>
VStem: 64 66<41.6222 315.609> 68 69<104.422 350.815> 316 66<38.0051 44 63.365 312.234>
DStem2: 393 39 421 21 0.935948 0.352139<-6.81602 29.0299>
LayerCount: 3
Fore
SplineSet
267 319 m 0xe8
 264 319 258 321 258 333 c 0
 258 347 267 346 283 347 c 2
 304 348 l 2
 315 349 335 353 343 355 c 2
 367 362 l 2
 370 363 372 363 374 363 c 0
 379 363 382 360 382 350 c 0
 380 305 377 97 377 60 c 0
 377 45 378 38 386 38 c 0
 388 38 390 38 393 39 c 2
 414 46 l 2
 421 48 425 50 425 40 c 2
 425 30 l 2
 425 26 425 22 421 21 c 2
 320 -17 l 2
 318 -18 317 -18 316 -18 c 0
 312 -18 312 -12 312 -5 c 2
 315 44 l 2
 316 57 316 62 305 51 c 0
 272 18 227 -13 165 -13 c 0
 101 -13 64 26 64 105 c 0xe8
 64 171 68 218 68 288 c 0xd8
 68 309 59 315 28 322 c 0
 25 323 19 323 19 335 c 0
 19 347 32 346 44 347 c 2
 64 348 l 2xe8
 76 349 93 352 101 355 c 2
 123 362 l 2
 125 363 127 363 129 363 c 0
 135 363 137 359 137 350 c 0xd8
 131 275 130 198 130 96 c 0
 130 39 168 26 197 26 c 0
 247 26 292 55 309 80 c 0
 313 85 314 90 314 96 c 0
 315 148 316 211 316 255 c 0
 316 299 315 312 267 319 c 0xe8
EndSplineSet
EndChar

StartChar: v
Encoding: 118 118 21
Width: 423
VWidth: 0
Flags: HW
HStem: -12 21G<206 214.5> 327 27<13.0262 59.4418 142.065 179.974 285.023 321.698 371.951 406.271>
VStem: 322 85<307 348>
LayerCount: 3
Fore
SplineSet
60 313 m 0
 48 324 42 324 29 327 c 0
 19 329 13 333 13 341 c 0
 13 351 22 354 33 354 c 0
 41 354 80 352 96 352 c 0
 110 352 149 354 158 354 c 0
 173 354 180 352 180 341 c 0
 180 331 171 332 159 329 c 0
 152 327 142 324 142 312 c 0
 142 296 226 92 232 92 c 0
 236 92 295 226 316 286 c 0
 320 296 322 304 322 310 c 0
 322 319 317 324 305 328 c 0
 293 332 285 331 285 341 c 0
 285 352 296 354 307 354 c 0
 316 354 338 352 352 352 c 0
 368 352 385 354 393 354 c 0
 404 354 407 350 407 346 c 0
 407 335 401 333 391 330 c 0
 359 320 332 228 290 140 c 0
 267 91 243 35 230 -4 c 0
 228 -11 219 -12 210 -12 c 0
 202 -12 194 -12 191 -5 c 0
 154 94 81 295 60 313 c 0
EndSplineSet
EndChar

StartChar: w
Encoding: 119 119 22
Width: 631
VWidth: 0
Flags: HW
HStem: -12 21G<205 214.5 424 432.5> 329 25<18.0262 60.7776 145.541 182.993 238.109 285.3 369.603 411.843 502.008 539.155 592.567 621.517>
VStem: 311 57<232.89 312.665> 540 82<307 348>
LayerCount: 3
Fore
SplineSet
68 310 m 0
 54 324 47 325 34 327 c 0
 24 329 18 333 18 341 c 0
 18 351 27 354 38 354 c 0
 46 354 80 352 96 352 c 0
 110 352 152 354 161 354 c 0
 176 354 183 352 183 341 c 0
 183 331 174 332 162 329 c 0
 150 326 145 321 145 312 c 0
 145 307 147 300 150 291 c 0
 168 234 225 87 228 87 c 0
 231 87 274 179 305 243 c 0
 309 251 311 258 311 265 c 0
 311 269 310 274 308 279 c 0
 303 290 297 306 290 313 c 0
 279 323 267 326 254 329 c 0
 244 331 238 335 238 343 c 0
 238 353 247 354 258 354 c 0
 266 354 305 352 321 352 c 0
 344 352 381 354 398 354 c 0
 409 354 412 348 412 344 c 0
 412 333 406 331 396 329 c 0
 370 324 368 318 368 307 c 0
 368 284 438 90 444 90 c 0
 452 90 510 224 534 286 c 0
 538 296 540 304 540 310 c 0
 540 319 537 324 525 328 c 0
 513 332 502 331 502 341 c 0
 502 352 513 354 524 354 c 0
 533 354 555 352 566 352 c 0
 575 352 600 354 608 354 c 0
 619 354 622 350 622 346 c 0
 622 335 616 333 606 329 c 0
 578 317 546 227 506 140 c 0
 483 91 460 36 444 -4 c 0
 441 -11 437 -12 428 -12 c 0
 420 -12 411 -12 409 -5 c 0
 394 48 361 136 334 211 c 0
 330 222 329 227 327 227 c 0
 325 227 323 221 318 211 c 2
 285 139 l 2
 262 90 241 35 228 -4 c 0
 226 -11 219 -12 210 -12 c 2
 209 -12 l 2
 201 -12 195 -12 192 -5 c 2
 123 176 l 2
 98 243 77 301 68 310 c 0
EndSplineSet
EndChar

StartChar: x
Encoding: 120 120 23
Width: 423
VWidth: 0
Flags: HW
HStem: -2 28<8.08563 49.9095 119.058 153.948 362.242 403.941> 327 27<13.0262 62.9961 157.065 194.974 255.023 291.698 354.04 396.271>
VStem: 7 112<4 49> 292 105<301.5 348>
DStem2: 217 220 178 178 0.625236 -0.780436<-108.791 6.30539 50.4186 172.468>
LayerCount: 3
Fore
SplineSet
231 11 m 0
 231 31 269 17 269 40 c 0
 269 53 226 115 208 136 c 0
 200 146 200 146 193 138 c 0
 172 114 119 56 119 42 c 0
 119 33 122 30 134 26 c 0
 146 22 154 21 154 11 c 0
 154 0 143 -2 132 -2 c 0
 123 -2 91 0 77 0 c 0
 61 0 31 -2 23 -2 c 0
 12 -2 7 2 7 6 c 0
 7 17 15 21 25 24 c 0
 57 35 139 117 178 163 c 0
 185 171 184 170 178 178 c 0
 119 257 88 296 63 314 c 0
 50 324 42 324 29 327 c 0
 19 329 13 333 13 341 c 0
 13 351 22 354 33 354 c 0
 41 354 95 352 111 352 c 0
 125 352 164 354 173 354 c 0
 188 354 195 352 195 341 c 0
 195 331 186 332 174 329 c 0
 167 327 157 324 157 312 c 0
 157 299 203 239 217 220 c 0
 224 211 225 216 233 224 c 0
 253 243 292 293 292 310 c 0
 292 319 287 324 275 328 c 0
 263 332 255 331 255 341 c 0
 255 352 266 354 277 354 c 0
 286 354 318 352 332 352 c 0
 348 352 375 354 383 354 c 0
 394 354 397 350 397 346 c 0
 397 335 391 334 381 330 c 0
 345 317 299 261 243 197 c 0
 236 189 237 191 243 183 c 0
 300 102 340 62 358 44 c 0
 370 32 376 29 388 25 c 0
 398 22 404 19 404 11 c 0
 404 1 395 -2 384 -2 c 0
 376 -2 331 0 315 0 c 0
 301 0 262 -2 253 -2 c 0
 238 -2 231 0 231 11 c 0
EndSplineSet
EndChar

StartChar: y
Encoding: 121 121 24
Width: 465
VWidth: 0
Flags: HW
HStem: -309 77<18.1286 96.8502> 327 27<21.0175 64.444 152.141 201.747 320.023 356.698 406.279 444.488>
DStem2: 109 -203 98 -286 0.453591 0.89121<-44.071 199.434 348.777 569.429>
LayerCount: 3
Fore
SplineSet
198 0 m 0
 158 98 86 295 65 313 c 0
 53 324 50 324 37 327 c 0
 27 329 21 333 21 341 c 0
 21 351 27 354 38 354 c 0
 46 354 90 352 106 352 c 0
 120 352 171 354 180 354 c 0
 195 354 202 354 202 343 c 0
 202 333 193 332 181 329 c 0
 174 327 152 324 152 312 c 0
 152 296 238 58 244 58 c 0
 248 58 330 226 351 286 c 0
 355 296 357 304 357 310 c 0
 357 319 352 324 340 328 c 0
 328 332 320 331 320 341 c 0
 320 352 331 354 342 354 c 0
 351 354 373 352 387 352 c 0
 403 352 420 354 428 354 c 0
 439 354 445 349 445 345 c 0
 445 328 430 327 420 324 c 0
 407 320 395 301 382 272 c 0
 338 172 285 64 239 -28 c 0
 236 -35 154 -201 98 -286 c 0
 90 -298 73 -309 59 -309 c 0
 36 -309 14 -298 14 -268 c 0
 14 -246 31 -232 51 -232 c 0
 61 -232 66 -236 76 -236 c 0
 90 -236 100 -219 109 -203 c 0
 133 -161 202 -39 202 -17 c 0
 202 -12 201 -6 198 0 c 0
EndSplineSet
EndChar

StartChar: z
Encoding: 122 122 25
Width: 390
VWidth: 0
Flags: HW
HStem: 0 37<186.186 313.385> 0 30<117.003 279.722> 328 28<110.715 259.203>
DStem2: 20 18 124 50 0.634517 0.772909<76.3807 383.29>
LayerCount: 3
Fore
SplineSet
76 356 m 2x60
 349 356 l 2
 359 356 363 352 363 347 c 0
 363 339 354 328 351 324 c 2
 124 50 l 2
 121 46 117 41 117 37 c 0xa0
 117 33 121 30 134 30 c 2
 185 30 l 2x60
 210 30 254 33 281 37 c 0xa0
 299 40 303 40 322 66 c 2
 330 77 l 2
 333 82 339 91 345 91 c 0
 357 91 358 84 358 80 c 2
 349 8 l 2
 349 7 348 0 333 0 c 2
 26 0 l 2
 20 0 18 5 18 10 c 0
 18 13 19 16 20 18 c 2
 263 314 l 2
 267 319 271 328 257 328 c 2
 212 328 l 2
 179 328 149 327 118 317 c 0
 110 315 101 308 95 302 c 0
 81 288 73 270 66 270 c 0
 55 270 53 273 54 288 c 2
 58 343 l 2
 59 351 70 356 76 356 c 2x60
EndSplineSet
EndChar

StartChar: zero
Encoding: 48 48 52
Width: 194
VWidth: 0
Flags: W
HStem: 212 100<55.4375 138.562>
VStem: 47 100<220.438 303.562>
LayerCount: 3
Fore
SplineSet
47 262 m 0
 47 290 69 312 97 312 c 0
 125 312 147 290 147 262 c 0
 147 234 125 212 97 212 c 0
 69 212 47 234 47 262 c 0
EndSplineSet
EndChar

StartChar: one
Encoding: 49 49 53
Width: 194
VWidth: 0
Flags: W
HStem: 212 100<55.4375 138.562>
VStem: 47 100<220.438 303.562>
LayerCount: 3
Fore
SplineSet
47 262 m 0
 47 290 69 312 97 312 c 0
 125 312 147 290 147 262 c 0
 147 234 125 212 97 212 c 0
 69 212 47 234 47 262 c 0
EndSplineSet
EndChar

StartChar: two
Encoding: 50 50 54
Width: 194
VWidth: 0
Flags: W
HStem: 212 100<55.4375 138.562>
VStem: 47 100<220.438 303.562>
LayerCount: 3
Fore
SplineSet
47 262 m 0
 47 290 69 312 97 312 c 0
 125 312 147 290 147 262 c 0
 147 234 125 212 97 212 c 0
 69 212 47 234 47 262 c 0
EndSplineSet
EndChar

StartChar: three
Encoding: 51 51 55
Width: 194
VWidth: 0
Flags: W
HStem: 212 100<55.4375 138.562>
VStem: 47 100<220.438 303.562>
LayerCount: 3
Fore
SplineSet
47 262 m 0
 47 290 69 312 97 312 c 0
 125 312 147 290 147 262 c 0
 147 234 125 212 97 212 c 0
 69 212 47 234 47 262 c 0
EndSplineSet
EndChar

StartChar: four
Encoding: 52 52 56
Width: 194
VWidth: 0
Flags: W
HStem: 212 100<55.4375 138.562>
VStem: 47 100<220.438 303.562>
LayerCount: 3
Fore
SplineSet
47 262 m 0
 47 290 69 312 97 312 c 0
 125 312 147 290 147 262 c 0
 147 234 125 212 97 212 c 0
 69 212 47 234 47 262 c 0
EndSplineSet
EndChar

StartChar: five
Encoding: 53 53 57
Width: 194
VWidth: 0
Flags: W
HStem: 212 100<55.4375 138.562>
VStem: 47 100<220.438 303.562>
LayerCount: 3
Fore
SplineSet
47 262 m 0
 47 290 69 312 97 312 c 0
 125 312 147 290 147 262 c 0
 147 234 125 212 97 212 c 0
 69 212 47 234 47 262 c 0
EndSplineSet
EndChar

StartChar: six
Encoding: 54 54 58
Width: 194
VWidth: 0
Flags: W
HStem: 212 100<55.4375 138.562>
VStem: 47 100<220.438 303.562>
LayerCount: 3
Fore
SplineSet
47 262 m 0
 47 290 69 312 97 312 c 0
 125 312 147 290 147 262 c 0
 147 234 125 212 97 212 c 0
 69 212 47 234 47 262 c 0
EndSplineSet
EndChar

StartChar: seven
Encoding: 55 55 59
Width: 194
VWidth: 0
Flags: W
HStem: 212 100<55.4375 138.562>
VStem: 47 100<220.438 303.562>
LayerCount: 3
Fore
SplineSet
47 262 m 0
 47 290 69 312 97 312 c 0
 125 312 147 290 147 262 c 0
 147 234 125 212 97 212 c 0
 69 212 47 234 47 262 c 0
EndSplineSet
EndChar

StartChar: eight
Encoding: 56 56 60
Width: 194
VWidth: 0
Flags: W
HStem: 212 100<55.4375 138.562>
VStem: 47 100<220.438 303.562>
LayerCount: 3
Fore
SplineSet
47 262 m 0
 47 290 69 312 97 312 c 0
 125 312 147 290 147 262 c 0
 147 234 125 212 97 212 c 0
 69 212 47 234 47 262 c 0
EndSplineSet
EndChar

StartChar: nine
Encoding: 57 57 61
Width: 194
VWidth: 0
Flags: W
HStem: 212 100<55.4375 138.562>
VStem: 47 100<220.438 303.562>
LayerCount: 3
Fore
SplineSet
47 262 m 0
 47 290 69 312 97 312 c 0
 125 312 147 290 147 262 c 0
 147 234 125 212 97 212 c 0
 69 212 47 234 47 262 c 0
EndSplineSet
EndChar

StartChar: .notdef
Encoding: 65536 -1 63
Width: 500
Flags: W
HStem: 0 50<100 400> 483 50<100 400>
VStem: 50 50<50 483> 400 50<50 483>
LayerCount: 3
Fore
SplineSet
50 0 m 1
 50 533 l 1
 450 533 l 1
 450 0 l 1
 50 0 l 1
100 50 m 1
 400 50 l 1
 400 483 l 1
 100 483 l 1
 100 50 l 1
EndSplineSet
EndChar

StartChar: period
Encoding: 46 46 64
Width: 254
VWidth: 0
Flags: HW
LayerCount: 3
Fore
SplineSet
80 38 m 0
 80 63 102 85 127 85 c 0
 152 85 174 63 174 38 c 0
 174 13 152 -9 127 -9 c 0
 102 -9 80 13 80 38 c 0
EndSplineSet
EndChar

StartChar: colon
Encoding: 58 58 65
Width: 254
VWidth: 0
Flags: HW
LayerCount: 3
Fore
SplineSet
80 313 m 0
 80 338 102 360 127 360 c 0
 152 360 174 338 174 313 c 0
 174 288 152 266 127 266 c 0
 102 266 80 288 80 313 c 0
80 38 m 0
 80 63 102 85 127 85 c 0
 152 85 174 63 174 38 c 0
 174 13 152 -9 127 -9 c 0
 102 -9 80 13 80 38 c 0
EndSplineSet
EndChar

StartChar: comma
Encoding: 44 44 66
Width: 242
VWidth: 0
Flags: HW
LayerCount: 3
Fore
SplineSet
83 -114 m 0
 74 -114 70 -106 70 -101 c 0
 70 -91 86 -82 95 -72 c 0
 109 -58 124 -36 124 -12 c 0
 124 15 64 17 64 58 c 0
 64 81 85 96 106 96 c 0
 140 96 166 59 166 21 c 0
 166 -43 129 -83 106 -101 c 0
 99 -107 93 -114 83 -114 c 0
EndSplineSet
EndChar

StartChar: semicolon
Encoding: 59 59 67
Width: 242
VWidth: 0
Flags: HW
LayerCount: 3
Fore
SplineSet
83 -114 m 0
 74 -114 70 -106 70 -101 c 0
 70 -91 86 -82 95 -72 c 0
 109 -58 124 -36 124 -12 c 0
 124 15 64 17 64 58 c 0
 64 81 85 96 106 96 c 0
 140 96 166 59 166 21 c 0
 166 -43 129 -83 106 -101 c 0
 99 -107 93 -114 83 -114 c 0
68 313 m 0
 68 338 90 360 115 360 c 0
 140 360 162 338 162 313 c 0
 162 288 140 266 115 266 c 0
 90 266 68 288 68 313 c 0
EndSplineSet
EndChar

StartChar: hyphen
Encoding: 45 45 68
Width: 332
VWidth: 0
Flags: HW
LayerCount: 3
Fore
SplineSet
66 196 m 2
 271 225 l 2
 274 225 276 226 278 226 c 0
 286 226 288 222 288 215 c 2
 288 176 l 2
 288 166 276 165 266 164 c 2
 62 134 l 2
 59 133 57 133 54 133 c 0
 49 133 44 135 44 143 c 2
 44 181 l 2
 44 193 57 195 66 196 c 2
EndSplineSet
EndChar

StartChar: exclam
Encoding: 33 33 69
Width: 254
VWidth: 0
Flags: HW
LayerCount: 3
Fore
SplineSet
130 666 m 0
 171 666 175 626 175 587 c 0
 175 568 157 395 153 146 c 0
 152.791191599 133.001677068 143 127 133 127 c 0
 123 127 113.338610593 132.004095497 113 146 c 0
 110 270 88 556 88 582 c 0
 88 636 94 666 130 666 c 0
80 38 m 0
 80 63 102 85 127 85 c 0
 152 85 174 63 174 38 c 0
 174 13 152 -9 127 -9 c 0
 102 -9 80 13 80 38 c 0
EndSplineSet
EndChar

StartChar: question
Encoding: 63 63 70
Width: 354
VWidth: 0
Flags: HW
LayerCount: 3
Fore
SplineSet
102 138 m 2
 102 342 l 2
 102 353 109 360 120 360 c 0
 134 360 144 356 160 356 c 0
 224 356 279 402 279 466 c 0
 279 543 215 590 130 600 c 0
 112 602 95 609 95 628 c 0
 95 647 111 661 131 661 c 0
 212 661 310 577 310 472 c 0
 310 383 270 300 164 294 c 0
 153 293 140 289 140 278 c 2
 140 139 l 2
 140 130 130 128 119 128 c 0
 111 128 102 129 102 138 c 2
80 38 m 0
 80 63 102 85 127 85 c 0
 152 85 174 63 174 38 c 0
 174 13 152 -9 127 -9 c 0
 102 -9 80 13 80 38 c 0
EndSplineSet
EndChar

StartChar: parenleft
Encoding: 40 40 71
Width: 372
VWidth: 0
Flags: HW
LayerCount: 3
Fore
SplineSet
323 658 m 0
 329 658 330 650 330 640 c 2
 330 624 l 2
 330 616 329 614 325 610 c 0
 251 548 121 392 121 180 c 0
 121 -8 185 -149 326 -255 c 0
 330 -258 330 -262 330 -268 c 2
 330 -292 l 2
 330 -301 329 -307 324 -307 c 0
 302 -307 58 -147 58 168 c 0
 58 476 315 658 323 658 c 0
EndSplineSet
EndChar

StartChar: parenright
Encoding: 41 41 72
Width: 372
VWidth: 0
Flags: HW
LayerCount: 3
Fore
SplineSet
65 658 m 0
 73 658 330 476 330 168 c 0
 330 -147 86 -307 64 -307 c 0
 59 -307 58 -301 58 -292 c 2
 58 -268 l 2
 58 -262 58 -258 62 -255 c 0
 203 -149 267 -8 267 180 c 0
 267 392 137 548 63 610 c 0
 59 614 58 616 58 624 c 2
 58 640 l 2
 58 650 59 658 65 658 c 0
EndSplineSet
EndChar

StartChar: asterisk
Encoding: 42 42 73
Width: 472
VWidth: 0
Flags: HW
HStem: 370 57<45.0688 122.474 346.865 422.758> 499 59<47.709 126.366 349.445 423.611>
VStem: 139 60<272.972 350.077 583.275 653.588> 274 58<272.94 343.817 576.031 653.09>
LayerCount: 3
Fore
SplineSet
303 654 m 0
 319 654 332 642 332 624 c 0
 332 605 286 537 275 517 c 0
 271 509 268 502 268 497 c 0
 268 492 271 488 276 488 c 0
 279 488 284 490 290 494 c 0
 310 507 344 537 373 551 c 0
 382 555 391 558 399 558 c 0
 414 558 425 550 425 528 c 0
 425 509 400 504 384 499 c 0
 367 494 277 474 277 460 c 0
 277 455 282 453 294 450 c 0
 336 438 360 435 390 427 c 0
 406 423 424 418 424 397 c 0
 424 382 414 370 401 370 c 0
 374 370 300 421 278 432 c 0
 272 435 267 436 264 436 c 0
 260 436 258 434 258 430 c 0
 258 426 260 421 264 415 c 0
 278 394 304 355 320 328 c 0
 326 318 332 307 332 297 c 0
 332 283 322 272 300 272 c 0
 289 272 277 280 274 290 c 0
 257 338 254 376 243 408 c 0
 240 418 237 423 233 423 c 0
 229 423 224 417 222 406 c 0
 213 366 208 335 199 301 c 0
 194 283 191 272 167 272 c 0
 150 272 139 286 139 300 c 0
 139 325 186 387 197 414 c 0
 200 421 203 429 203 435 c 0
 203 438 202 441 199 441 c 0
 196 441 192 439 185 434 c 0
 162 418 119 387 92 373 c 0
 84 369 75 367 68 367 c 0
 54 367 43 375 43 394 c 0
 43 415 61 425 78 428 c 0
 110 434 143 445 170 453 c 0
 184 457 194 463 194 468 c 0
 194 477 187 477 172 480 c 0
 139 487 118 489 89 497 c 0
 71 502 46 507 46 530 c 0
 46 544 55 560 71 560 c 0
 100 560 163 511 184 500 c 0
 190 497 196 495 201 495 c 0
 207 495 210 498 210 503 c 0
 210 506 209 510 206 515 c 0
 188 549 139 605 139 626 c 0
 139 642 151 655 168 655 c 0
 198 655 199 623 204 604 c 0
 211 577 217 554 225 532 c 0
 231 517 233 508 239 508 c 0
 244 508 250 516 253 532 c 0
 261 570 267 598 277 633 c 0
 281 645 287 654 303 654 c 0
EndSplineSet
EndChar

StartChar: dagger
Encoding: 8224 8224 74
Width: 560
VWidth: 0
Flags: W
HStem: 324 85<59.3722 107.875 149.366 157.903 408.131 417.55 458.345 508.061> 324 50<103.025 157.643> 368 12<206 245 323 329>
VStem: 238 83<54.5883 327.256 579.034 648.711> 239 90<400.491 558.546> 253 55<-146 77.8977 298.286 358.38 385.062 482.463> 262 40<526.342 607.077>
LayerCount: 3
Fore
SplineSet
438 375 m 0x24
 460 375 460 405 487 405 c 0
 507 405 515 386 515 371 c 0
 515 342 491 320 466 320 c 0
 405 320 409 368 366 368 c 0
 323 368 304 335 304 328 c 0
 304 312 321 304 321 297 c 0x30
 321 281 311 31 302 -140 c 0x22
 302 -146 295 -146 289 -146 c 2
 265 -146 l 2
 258 -146 250 -145 250 -138 c 0
 249 41 238 272 238 298 c 0
 238 304 255 316 255 329 c 0
 255 352 223 366 206 366 c 0
 162 366 151 324 108 324 c 0x50
 73 324 48 347 48 378 c 16
 48 397 62 409 79 409 c 0x90
 108 409 106 374 123 374 c 0
 149 374 156 408 192 408 c 0
 210 408 233 385 245 385 c 0
 251 385 253 392 253 399 c 0x44
 253 431 239 451 239 484 c 0x48
 239 532 262 559 262 572 c 0
 262 582 242 600 242 620 c 0
 242 642 263 655 283 655 c 0
 304 655 323 641 323 615 c 0
 323 596 302 578 302 573 c 0x42
 302 563 329 526 329 490 c 0x48
 329 448 308 428 308 389 c 0
 308 383 308 380 313 380 c 0
 329 380 361 406 385 406 c 0
 409 406 422 375 438 375 c 0x24
EndSplineSet
EndChar

StartChar: daggerdbl
Encoding: 8225 8225 75
Width: 493
VWidth: 0
Flags: HW
HStem: 11 61<54.2462 123.674 348.326 417.754> 26 8<124 187> 448 61<54.2462 123.674 348.326 417.754> 486 8<285 348>
VStem: 207 58<-139.781 -62.5236 34.0022 231.015 288.985 485.998 582.524 659.781> 220 35<-111.2 -1.79691 521.797 621.977> 225 21<173.941 242.921 277.012 340.977>
LayerCount: 3
Fore
SplineSet
205 68 m 0x48
 208 127 213 170 225 234 c 0
 226 240 231 243 237 243 c 0
 243 243 245 239 246 234 c 0x42
 258 170 263 127 267 68 c 0
 267 62 265 52 265 49 c 0
 265 35 269 34 281 34 c 0x48
 312 34 337 53 362 66 c 0
 371 70 380 72 388 72 c 0
 409 72 419 57 419 42 c 0
 419 27 409 11 389 11 c 0x88
 380 11 370 14 363 19 c 0
 359 22 355 26 348 26 c 0
 341 26 302 11 282 6 c 0
 273 4 270 3 268 -4 c 0
 261 -25 255 -40 255 -60 c 0
 255 -83 271 -92 271 -114 c 0
 271 -131 256 -141 238 -141 c 0
 221 -141 206 -129 206 -112 c 0
 206 -95 220 -73 220 -62 c 0
 220 -35 212 -18 205 -1 c 0
 202 5 199 4 190 6 c 0
 170 11 131 26 124 26 c 0x44
 117 26 113 23 109 20 c 0
 102 15 92 11 83 11 c 0
 63 11 53 27 53 42 c 0
 53 57 63 72 84 72 c 0x84
 92 72 101 70 110 66 c 0
 133 54 154 34 187 34 c 0
 204 34 207 37 207 47 c 0
 207 53 205 62 205 68 c 0x48
267 452 m 0
 264 393 259 350 247 286 c 0
 246 281 241 277 235 277 c 0
 229 277 227 281 226 286 c 0
 214 350 209 393 205 452 c 1
 207 471 l 2
 209 485 203 486 191 486 c 0x18
 160 486 135 467 110 454 c 0
 101 450 92 448 84 448 c 0
 63 448 53 463 53 478 c 0
 53 493 63 509 83 509 c 0x28
 92 509 102 505 109 500 c 0
 113 497 117 494 124 494 c 0
 131 494 170 509 190 514 c 0
 199 516 202 517 204 524 c 0
 211 545 217 560 217 580 c 0
 217 603 201 612 201 634 c 0
 201 651 216 661 234 661 c 0
 251 661 265 649 265 632 c 0
 265 615 252 593 252 582 c 0
 252 555 260 538 267 521 c 0
 270 515 273 516 282 514 c 0
 302 509 341 494 348 494 c 0x18
 355 494 359 497 363 500 c 0
 370 505 380 509 389 509 c 0
 409 509 419 493 419 478 c 0
 419 463 409 448 388 448 c 0x28
 380 448 371 450 362 454 c 0
 339 466 318 486 285 486 c 0
 268 486 265 483 265 473 c 0x18
 265 467 267 458 267 452 c 0
EndSplineSet
Layer: 2
SplineSet
245 234 m 4x42
 257 170 262 127 266 68 c 4
 266 64 264 57 264 49 c 4
 264 34 269 33 281 33 c 4x48
 312 33 337 52 362 65 c 4
 371 69 380 71 388 71 c 4
 408 71 418 57 418 42 c 4
 418 27 408 12 389 12 c 4x88
 380 12 371 15 364 20 c 4
 360 23 355 27 348 27 c 4
 340 27 302 12 282 7 c 4
 273 5 269 3 267 -4 c 4
 260 -25 254 -40 254 -60 c 4x44
 254 -84 270 -93 270 -114 c 4
 270 -130 256 -140 238 -140 c 4
 221 -140 208 -128 208 -112 c 4x48
 208 -95 221 -74 221 -62 c 4
 221 -35 213 -18 206 -1 c 4
 203 5 199 5 190 7 c 4
 170 12 132 27 124 27 c 4x44
 117 27 112 24 108 21 c 4
 101 16 92 12 83 12 c 4
 64 12 54 27 54 42 c 4
 54 57 64 71 84 71 c 4x84
 92 71 101 69 110 65 c 4
 133 53 154 33 187 33 c 4
 204 33 208 36 208 47 c 4x48
 208 53 206 62 206 68 c 4
 209 127 214 170 226 234 c 4
 227 239 231 242 237 242 c 4
 242 242 244 239 245 234 c 4x42
227 286 m 4
 215 350 210 393 206 452 c 4
 206 456 208 463 208 471 c 4
 208 486 203 487 191 487 c 4x18
 160 487 135 468 110 455 c 4
 101 451 92 449 84 449 c 4
 64 449 54 463 54 478 c 4
 54 493 64 508 83 508 c 4x28
 92 508 101 504 108 499 c 4
 112 496 117 493 124 493 c 4
 132 493 170 508 190 513 c 4
 199 515 203 517 205 524 c 4
 212 545 218 560 218 580 c 4
 218 604 202 613 202 634 c 4
 202 650 216 660 234 660 c 4
 251 660 264 648 264 632 c 4
 264 615 251 594 251 582 c 4
 251 555 259 538 266 521 c 4
 269 515 273 515 282 513 c 4
 302 508 340 493 348 493 c 4x18
 355 493 360 496 364 499 c 4
 371 504 380 508 389 508 c 4
 408 508 418 493 418 478 c 4
 418 463 408 449 388 449 c 4x28
 380 449 371 451 362 455 c 4
 339 467 318 487 285 487 c 4x18
 268 487 264 484 264 473 c 4
 264 467 266 458 266 452 c 4
 263 393 258 350 246 286 c 4
 245 281 241 278 235 278 c 4
 230 278 228 281 227 286 c 4
EndSplineSet
EndChar

StartChar: paragraph
Encoding: 182 182 76
Width: 578
VWidth: 0
Flags: HW
HStem: 625 33<337.952 436.572 474.384 537.998>
VStem: 43 291<303.174 499.793> 281 51<-298.937 -69.1202> 297 37<-69.1202 143.999> 422 50<-298.422 -62.9679> 439 35<224.339 623.661>
LayerCount: 3
Fore
SplineSet
474 595 m 2xc4
 474 414 l 2xc4
 474 254 472 -255 472 -280 c 0
 472 -297 461 -299 449 -299 c 24
 436 -298 422 -295 422 -278 c 0x88
 422 -253 439 306 439 414 c 2
 439 589 l 2
 439 621 427 625 409 625 c 2
 370 625 l 2
 347 625 334 622 334 589 c 2x94
 334 414 l 2xc0
 334 254 332 -255 332 -280 c 0
 332 -297 327 -299 307 -299 c 0
 290 -299 281 -297 281 -280 c 0xa0
 281 -247 295 -12 297 131 c 0x90
 297 139 297 142 281 144 c 0xa0
 224 152 43 212 43 405 c 0
 43 580 214 658 376 658 c 2
 519 658 l 2
 536 658 538 653 538 641 c 0
 538 628 536 625 519 625 c 2
 500 625 l 2
 475 625 474 620 474 595 c 2xc4
EndSplineSet
EndChar

StartChar: section
Encoding: 167 167 77
Width: 452
VWidth: 0
Flags: HW
LayerCount: 3
Fore
SplineSet
246 575 m 0
 259 586 261 587 261 598 c 0
 261 613 239 625 219 625 c 0
 173 625 133 597 133 552 c 0
 133 513 154 481 182 449 c 0
 227 399 293 354 340 301 c 0
 370 267 395 234 395 184 c 0
 395 124 364 95 345 83 c 0
 332 75 334 73 340 58 c 0
 348 41 357 15 357 -20 c 0
 357 -101 277 -146 204 -146 c 0
 151 -146 90 -126 90 -73 c 0
 90 -41 115 -24 148 -24 c 0
 162 -24 175 -30 186 -43 c 0
 190 -48 189 -56 182 -57 c 0
 169 -59 143 -63 143 -82 c 0
 143 -109 179 -117 207 -117 c 0
 276 -117 311 -70 311 -14 c 0
 311 49 248 102 189 156 c 0
 129 211 66 263 66 342 c 0
 66 391 86 417 105 432 c 0
 112 438 114 441 114 444 c 0
 114 448 111 453 106 463 c 0
 98 478 87 504 87 541 c 0
 87 615 153 656 220 656 c 0
 271 656 329 632 329 584 c 0
 329 561 305 545 284 545 c 0
 268 545 260 549 249 557 c 0
 244 561 241 571 246 575 c 0
127 409 m 0
 115 401 100 385 100 352 c 0
 100 314 138 275 171 244 c 0
 216 200 263 157 307 111 c 0
 313 105 316 102 320 102 c 0
 323 102 327 105 334 109 c 0
 346 115 366 135 366 168 c 0
 366 189 352 215 327 243 c 0
 295 280 249 320 211 352 c 0
 186 373 165 393 153 405 c 0
 147 411 144 415 140 415 c 0
 137 415 133 413 127 409 c 0
EndSplineSet
Layer: 2
SplineSet
262 598 m 4xea80
 262 614 239 626 219 626 c 4
 173 626 132 598 132 552 c 4xea80
 132 513 153 480 181 448 c 4
 226 398 292 353 339 300 c 4
 369 266 394 234 394 184 c 4
 394 124 363 97 344 84 c 4
 336 79 332 77 332 74 c 4
 332 71 335 67 339 58 c 4
 347 41 356 15 356 -20 c 4
 356 -100 277 -145 204 -145 c 4
 151 -145 91 -125 91 -73 c 4
 91 -42 115 -25 148 -25 c 4
 162 -25 174 -31 185 -44 c 4
 189 -49 188 -55 182 -56 c 4
 169 -58 142 -62 142 -82 c 4xe580
 142 -110 179 -118 207 -118 c 4
 277 -118 312 -70 312 -14 c 4
 312 50 249 103 190 157 c 4
 130 212 67 264 67 342 c 4xf180
 67 391 87 416 106 431 c 4
 114 438 118 440 118 443 c 4
 118 447 113 451 107 463 c 4
 99 478 88 504 88 541 c 4
 88 614 153 655 220 655 c 4
 271 655 328 631 328 584 c 4
 328 562 305 546 284 546 c 4
 268 546 261 550 250 558 c 4
 245 562 243 571 247 574 c 4
 260 585 262 587 262 598 c 4xea80
126 410 m 4
 114 402 99 385 99 352 c 4xf280
 99 313 137 274 170 243 c 4
 215.310196881 199.322603006 262 156 306 110 c 4
 313.347797516 102.318211688 315 99 318 99 c 4
 321 99 325 103 334 108 c 4
 346 114 367 135 367 168 c 4
 367 189 353 216 328 244 c 4
 296 281 250 321 212 353 c 4
 187 374 166 394 154 406 c 4
 148 412 146 416 141 416 c 4
 138 416 133 415 126 410 c 4
EndSplineSet
EndChar

StartChar: bracketleft
Encoding: 91 91 78
Width: 270
VWidth: 0
Flags: HW
HStem: -210 22<110.23 241.946> 631 21<116.233 241> 633 26<116.191 248.996>
VStem: 59 57<-187.588 630.106>
LayerCount: 3
Fore
SplineSet
87 652 m 2xd0
 241 659 l 2
 246 659 249 656 249 646 c 0
 249 636 244 633 232 633 c 2xb0
 132 631 l 2
 117 631 116 630 116 612 c 2
 110 -166 l 2
 110 -188 110 -188 132 -188 c 2
 224 -188 l 2
 238 -188 242 -188 242 -201 c 0
 242 -210 239 -212 234 -212 c 2
 79 -210 l 2
 59 -210 55 -204 54 -184 c 0
 54 -176 59 -33 59 186 c 0
 59 282 60 380 60 476 c 0
 60 527 59 609 59 629 c 0
 59 653 66 651 87 652 c 2xd0
EndSplineSet
EndChar

StartChar: bracketright
Encoding: 93 93 79
Width: 270
VWidth: 0
Flags: HW
HStem: -215 22<25.0545 152.717> 629 25<29.0174 158.963>
VStem: 153 56<-192.924 165.129> 159 57<409.226 630.906>
LayerCount: 3
Fore
SplineSet
197 653 m 0xd0
 213 653 216 650 216 629 c 0xd0
 214 422 208 151 208 -52 c 0
 208 -136 209 -187 209 -192 c 0
 208 -212 204 -213 184 -213 c 2
 33 -215 l 2
 28 -215 25 -215 25 -206 c 0
 25 -193 29 -193 43 -193 c 2
 131 -193 l 2
 153 -193 153 -191 153 -171 c 2xe0
 159 612 l 2
 159 630 158 631 143 631 c 2
 46 629 l 2
 34 629 29 631 29 641 c 0
 29 651 35 654 40 654 c 0
 92 653 144 653 197 653 c 0xd0
EndSplineSet
EndChar

StartChar: quoteright
Encoding: 8217 8217 80
Width: 206
VWidth: 0
Flags: HW
HStem: 459 203<72 79>
VStem: 113 43<509.948 608>
LayerCount: 3
Fore
SplineSet
95 662 m 0
 134 662 155 626 155 583 c 0
 155 527 130 494 98 473 c 0
 91 469 79 459 69 459 c 0
 63 459 56 465 56 472 c 0
 56 483 76 492 86 500 c 0
 102 513 114 524 114 547 c 0
 114 567 103 578 87 585 c 0
 70 593 52 604 52 626 c 0
 52 649 72 662 95 662 c 0
EndSplineSet
EndChar

StartChar: quoteleft
Encoding: 8216 8216 81
Width: 206
VWidth: 0
Flags: HW
LayerCount: 3
Fore
SplineSet
112 459 m 0
 73 459 52 495 52 538 c 0
 52 594 77 627 109 648 c 0
 116 652 128 662 138 662 c 0
 144 662 151 656 151 649 c 0
 151 638 131 629 121 621 c 0
 105 608 93 597 93 574 c 0
 93 554 104 543 120 536 c 0
 137 528 155 517 155 495 c 0
 155 472 135 459 112 459 c 0
EndSplineSet
EndChar

StartChar: quotedblleft
Encoding: 8220 8220 82
Width: 366
VWidth: 0
Flags: HW
LayerCount: 3
Fore
SplineSet
112 459 m 0
 73 459 52 495 52 538 c 0
 52 594 77 627 109 648 c 0
 116 652 128 662 138 662 c 0
 144 662 151 656 151 649 c 0
 151 638 131 629 121 621 c 0
 105 608 93 597 93 574 c 0
 93 554 104 543 120 536 c 0
 137 528 155 517 155 495 c 0
 155 472 135 459 112 459 c 0
262 459 m 0
 223 459 202 495 202 538 c 0
 202 594 227 627 259 648 c 0
 266 652 278 662 288 662 c 0
 294 662 301 656 301 649 c 0
 301 638 281 629 271 621 c 0
 255 608 243 597 243 574 c 0
 243 554 254 543 270 536 c 0
 287 528 305 517 305 495 c 0
 305 472 285 459 262 459 c 0
EndSplineSet
EndChar

StartChar: quotedblright
Encoding: 8221 8221 83
Width: 354
VWidth: 0
Flags: HWO
LayerCount: 3
Fore
SplineSet
245 662 m 0
 284 662 305 626 305 583 c 0
 305 527 280 494 248 473 c 0
 241 469 229 459 219 459 c 0
 213 459 206 465 206 472 c 0
 206 483 226 492 236 500 c 0
 252 513 264 524 264 547 c 0
 264 567 253 578 237 585 c 0
 220 593 202 604 202 626 c 0
 202 649 222 662 245 662 c 0
95 662 m 0
 134 662 155 626 155 583 c 0
 155 527 130 494 98 473 c 0
 91 469 79 459 69 459 c 0
 63 459 56 465 56 472 c 0
 56 483 76 492 86 500 c 0
 102 513 114 524 114 547 c 0
 114 567 103 578 87 585 c 0
 70 593 52 604 52 626 c 0
 52 649 72 662 95 662 c 0
EndSplineSet
EndChar
